<mxfile host="app.diagrams.net" agent="Mozilla/5.0 (Windows NT 10.0; Win64; x64) AppleWebKit/537.36 (KHTML, like Gecko) Chrome/138.0.0.0 Safari/537.36" version="28.0.7">
  <diagram name="Страница — 1" id="XZstg6PQc9RRBtH5cb5S">
    <mxGraphModel dx="1085" dy="564" grid="1" gridSize="10" guides="1" tooltips="1" connect="1" arrows="1" fold="1" page="1" pageScale="1" pageWidth="827" pageHeight="1169" math="0" shadow="0">
      <root>
        <mxCell id="0" />
        <mxCell id="1" parent="0" />
        <mxCell id="KymraTF8zum3KPYlwucy-1" value="&lt;div&gt;&lt;br&gt;&lt;/div&gt;&lt;div&gt;&lt;br&gt;&lt;/div&gt;&lt;div&gt;&lt;br&gt;&lt;/div&gt;DB&lt;br&gt;&lt;div&gt;&lt;span style=&quot;background-color: rgb(255, 255, 255); color: rgb(0, 29, 53); font-family: &amp;quot;Google Sans&amp;quot;, Arial, sans-serif; font-weight: 400; text-align: start;&quot;&gt;&lt;font&gt;PostgreSQL&lt;/font&gt;&lt;/span&gt;+&lt;/div&gt;&lt;div&gt;&lt;span style=&quot;color: rgb(0, 29, 53); font-family: &amp;quot;Google Sans&amp;quot;, Arial, sans-serif; font-weight: 500; text-align: start; background-color: rgb(255, 255, 255);&quot;&gt;&lt;font&gt;TimescaleDB&lt;/font&gt;&lt;/span&gt;&lt;br&gt;&lt;br&gt;&lt;/div&gt;" style="strokeWidth=2;html=1;shape=mxgraph.flowchart.database;whiteSpace=wrap;fontStyle=1" parent="1" vertex="1">
          <mxGeometry x="80" y="260" width="120" height="100" as="geometry" />
        </mxCell>
        <mxCell id="KymraTF8zum3KPYlwucy-2" value="PLC" style="rounded=1;whiteSpace=wrap;html=1;" parent="1" vertex="1">
          <mxGeometry x="345.01" y="160" width="40" height="20" as="geometry" />
        </mxCell>
        <mxCell id="KymraTF8zum3KPYlwucy-7" value="Протоколы&lt;div&gt;Modbus RTU/TCP/IP&lt;/div&gt;" style="text;html=1;align=center;verticalAlign=middle;whiteSpace=wrap;rounded=0;" parent="1" vertex="1">
          <mxGeometry x="230" y="40" width="60" height="60" as="geometry" />
        </mxCell>
        <mxCell id="KymraTF8zum3KPYlwucy-8" value="" style="html=1;shadow=0;dashed=0;align=center;verticalAlign=middle;shape=mxgraph.arrows2.arrow;dy=0.6;dx=40;notch=0;rotation=90;" parent="1" vertex="1">
          <mxGeometry x="334.38" y="110" width="61.25" height="17.5" as="geometry" />
        </mxCell>
        <mxCell id="KymraTF8zum3KPYlwucy-10" value="" style="strokeWidth=2;html=1;shape=mxgraph.flowchart.annotation_2;align=left;labelPosition=right;pointerEvents=1;rotation=-90;" parent="1" vertex="1">
          <mxGeometry x="300" y="40" width="50" height="30" as="geometry" />
        </mxCell>
        <mxCell id="KymraTF8zum3KPYlwucy-11" value="" style="strokeWidth=2;html=1;shape=mxgraph.flowchart.annotation_2;align=left;labelPosition=right;pointerEvents=1;rotation=-90;" parent="1" vertex="1">
          <mxGeometry x="340" y="40" width="50" height="30" as="geometry" />
        </mxCell>
        <mxCell id="KymraTF8zum3KPYlwucy-12" value="" style="strokeWidth=2;html=1;shape=mxgraph.flowchart.annotation_2;align=left;labelPosition=right;pointerEvents=1;rotation=-90;" parent="1" vertex="1">
          <mxGeometry x="380" y="40" width="50" height="30" as="geometry" />
        </mxCell>
        <mxCell id="KymraTF8zum3KPYlwucy-24" value="" style="shape=mxgraph.arrows2.wedgeArrowDashed2;html=1;bendable=0;startWidth=28;stepSize=15;rounded=0;" parent="1" edge="1">
          <mxGeometry width="100" height="100" relative="1" as="geometry">
            <mxPoint x="480" y="40" as="sourcePoint" />
            <mxPoint x="403.1370849898476" y="103.4314575050762" as="targetPoint" />
          </mxGeometry>
        </mxCell>
        <mxCell id="KymraTF8zum3KPYlwucy-31" value="" style="swimlane;startSize=0;" parent="1" vertex="1">
          <mxGeometry x="210" y="10" width="315.01" height="230" as="geometry" />
        </mxCell>
        <mxCell id="KymraTF8zum3KPYlwucy-33" value="Завод 1" style="label;whiteSpace=wrap;html=1;image=img/clipart/Gear_128x128.png" parent="KymraTF8zum3KPYlwucy-31" vertex="1">
          <mxGeometry x="204" y="180" width="104.99" height="42.5" as="geometry" />
        </mxCell>
        <mxCell id="KymraTF8zum3KPYlwucy-4" value="&lt;font style=&quot;font-size: 14px;&quot;&gt;Датчики&lt;/font&gt;" style="text;strokeColor=none;fillColor=none;html=1;fontSize=24;fontStyle=1;verticalAlign=middle;align=center;" parent="KymraTF8zum3KPYlwucy-31" vertex="1">
          <mxGeometry y="-10" width="100" height="30" as="geometry" />
        </mxCell>
        <mxCell id="KymraTF8zum3KPYlwucy-36" value="" style="shape=waypoint;sketch=0;fillStyle=solid;size=6;pointerEvents=1;points=[];fillColor=none;resizable=0;rotatable=0;perimeter=centerPerimeter;snapToPoint=1;" parent="KymraTF8zum3KPYlwucy-31" vertex="1">
          <mxGeometry x="90" width="20" height="20" as="geometry" />
        </mxCell>
        <mxCell id="KymraTF8zum3KPYlwucy-37" value="" style="shape=waypoint;sketch=0;fillStyle=solid;size=6;pointerEvents=1;points=[];fillColor=none;resizable=0;rotatable=0;perimeter=centerPerimeter;snapToPoint=1;" parent="KymraTF8zum3KPYlwucy-31" vertex="1">
          <mxGeometry x="120" width="20" height="20" as="geometry" />
        </mxCell>
        <mxCell id="KymraTF8zum3KPYlwucy-38" value="" style="shape=waypoint;sketch=0;fillStyle=solid;size=6;pointerEvents=1;points=[];fillColor=none;resizable=0;rotatable=0;perimeter=centerPerimeter;snapToPoint=1;" parent="KymraTF8zum3KPYlwucy-31" vertex="1">
          <mxGeometry x="130" width="20" height="20" as="geometry" />
        </mxCell>
        <mxCell id="KymraTF8zum3KPYlwucy-39" value="" style="shape=waypoint;sketch=0;fillStyle=solid;size=6;pointerEvents=1;points=[];fillColor=none;resizable=0;rotatable=0;perimeter=centerPerimeter;snapToPoint=1;" parent="KymraTF8zum3KPYlwucy-31" vertex="1">
          <mxGeometry x="160" width="20" height="20" as="geometry" />
        </mxCell>
        <mxCell id="KymraTF8zum3KPYlwucy-40" value="" style="shape=waypoint;sketch=0;fillStyle=solid;size=6;pointerEvents=1;points=[];fillColor=none;resizable=0;rotatable=0;perimeter=centerPerimeter;snapToPoint=1;" parent="KymraTF8zum3KPYlwucy-31" vertex="1">
          <mxGeometry x="170" width="20" height="20" as="geometry" />
        </mxCell>
        <mxCell id="KymraTF8zum3KPYlwucy-41" value="" style="shape=waypoint;sketch=0;fillStyle=solid;size=6;pointerEvents=1;points=[];fillColor=none;resizable=0;rotatable=0;perimeter=centerPerimeter;snapToPoint=1;" parent="KymraTF8zum3KPYlwucy-31" vertex="1">
          <mxGeometry x="204" width="20" height="20" as="geometry" />
        </mxCell>
        <mxCell id="KymraTF8zum3KPYlwucy-42" value="" style="shape=waypoint;sketch=0;fillStyle=solid;size=6;pointerEvents=1;points=[];fillColor=none;resizable=0;rotatable=0;perimeter=centerPerimeter;snapToPoint=1;" parent="KymraTF8zum3KPYlwucy-31" vertex="1">
          <mxGeometry x="270" y="10" width="20" height="20" as="geometry" />
        </mxCell>
        <mxCell id="KymraTF8zum3KPYlwucy-44" style="edgeStyle=orthogonalEdgeStyle;rounded=0;orthogonalLoop=1;jettySize=auto;html=1;exitX=0.5;exitY=1;exitDx=0;exitDy=0;entryX=0.613;entryY=-0.029;entryDx=0;entryDy=0;entryPerimeter=0;" parent="1" source="KymraTF8zum3KPYlwucy-34" target="KymraTF8zum3KPYlwucy-43" edge="1">
          <mxGeometry relative="1" as="geometry">
            <mxPoint x="380" y="260" as="targetPoint" />
            <Array as="points">
              <mxPoint x="593" y="250" />
              <mxPoint x="381" y="250" />
            </Array>
          </mxGeometry>
        </mxCell>
        <mxCell id="KymraTF8zum3KPYlwucy-34" value="Завод 2" style="label;whiteSpace=wrap;html=1;image=img/clipart/Gear_128x128.png" parent="1" vertex="1">
          <mxGeometry x="540" y="190" width="104.99" height="42.5" as="geometry" />
        </mxCell>
        <mxCell id="KymraTF8zum3KPYlwucy-45" style="edgeStyle=orthogonalEdgeStyle;rounded=0;orthogonalLoop=1;jettySize=auto;html=1;exitX=0.5;exitY=1;exitDx=0;exitDy=0;entryX=0.75;entryY=0;entryDx=0;entryDy=0;" parent="1" source="KymraTF8zum3KPYlwucy-35" target="KymraTF8zum3KPYlwucy-43" edge="1">
          <mxGeometry relative="1" as="geometry" />
        </mxCell>
        <mxCell id="KymraTF8zum3KPYlwucy-35" value="Завод 3" style="label;whiteSpace=wrap;html=1;image=img/clipart/Gear_128x128.png" parent="1" vertex="1">
          <mxGeometry x="660" y="190" width="104.99" height="42.5" as="geometry" />
        </mxCell>
        <mxCell id="KymraTF8zum3KPYlwucy-49" style="edgeStyle=orthogonalEdgeStyle;rounded=0;orthogonalLoop=1;jettySize=auto;html=1;exitX=0.5;exitY=1;exitDx=0;exitDy=0;entryX=0.5;entryY=0;entryDx=0;entryDy=0;" parent="1" source="KymraTF8zum3KPYlwucy-43" target="KymraTF8zum3KPYlwucy-48" edge="1">
          <mxGeometry relative="1" as="geometry" />
        </mxCell>
        <mxCell id="KymraTF8zum3KPYlwucy-43" value="Сервер IIoT платформы" style="rounded=1;whiteSpace=wrap;html=1;" parent="1" vertex="1">
          <mxGeometry x="307.51" y="280" width="120" height="60" as="geometry" />
        </mxCell>
        <mxCell id="KymraTF8zum3KPYlwucy-46" style="edgeStyle=orthogonalEdgeStyle;rounded=0;orthogonalLoop=1;jettySize=auto;html=1;exitX=0.5;exitY=1;exitDx=0;exitDy=0;entryX=0.466;entryY=-0.005;entryDx=0;entryDy=0;entryPerimeter=0;" parent="1" source="KymraTF8zum3KPYlwucy-2" target="KymraTF8zum3KPYlwucy-43" edge="1">
          <mxGeometry relative="1" as="geometry" />
        </mxCell>
        <mxCell id="KymraTF8zum3KPYlwucy-47" style="edgeStyle=orthogonalEdgeStyle;rounded=0;orthogonalLoop=1;jettySize=auto;html=1;exitX=0;exitY=0.5;exitDx=0;exitDy=0;entryX=1;entryY=0.5;entryDx=0;entryDy=0;entryPerimeter=0;" parent="1" source="KymraTF8zum3KPYlwucy-43" target="KymraTF8zum3KPYlwucy-1" edge="1">
          <mxGeometry relative="1" as="geometry" />
        </mxCell>
        <mxCell id="KymraTF8zum3KPYlwucy-48" value="Фронт web&amp;nbsp;&lt;br&gt;(только для браузера)" style="rounded=1;whiteSpace=wrap;html=1;" parent="1" vertex="1">
          <mxGeometry x="307.51" y="420" width="120" height="60" as="geometry" />
        </mxCell>
        <mxCell id="KymraTF8zum3KPYlwucy-14" value="&lt;div&gt;Протоколы&amp;nbsp;&lt;/div&gt;Ethernet/4G" style="text;html=1;align=center;verticalAlign=middle;whiteSpace=wrap;rounded=0;" parent="1" vertex="1">
          <mxGeometry x="274.99" y="232.5" width="85.01" height="52.5" as="geometry" />
        </mxCell>
      </root>
    </mxGraphModel>
  </diagram>
</mxfile>
